<svg xmlns="http://www.w3.org/2000/svg" width="1100" height="1030" viewBox="0 0 1100 1030">
<defs>
<linearGradient id="bg" x1="0" y1="0" x2="1" y2="1"><stop offset="0" stop-color="#080b12"/><stop offset="1" stop-color="#111827"/></linearGradient>
<linearGradient id="summary" x1="0" y1="0" x2="1" y2="0"><stop offset="0" stop-color="#111827"/><stop offset="1" stop-color="#171d2b"/></linearGradient>
<filter id="shadow" x="-20%" y="-20%" width="140%" height="140%"><feDropShadow dx="0" dy="8" stdDeviation="10" flood-color="#000000" flood-opacity="0.28"/></filter>
<style>.title{font-family:Arial,Helvetica,sans-serif;fill:#f8fafc;font-weight:700}.muted{font-family:Arial,Helvetica,sans-serif;fill:#94a3b8}.body{font-family:Arial,Helvetica,sans-serif;fill:#e2e8f0}</style>
</defs>
<rect width="100%" height="100%" rx="22" fill="url(#bg)"/>
<rect x="22" y="22" width="1056" height="986" rx="20" fill="none" stroke="#263043"/>
<text x="550" y="72" text-anchor="middle" class="muted" font-size="16" letter-spacing="4">DSA PROGRESS</text>
<text x="550" y="118" text-anchor="middle" class="title" font-size="38">Keep coding. Keep growing. 🚀</text>
<text x="550" y="171" text-anchor="middle" class="title" font-size="54">15 <tspan fill="#94a3b8" font-size="30">problems solved</tspan></text>
<rect x="95" y="198" width="910" height="76" rx="14" fill="url(#summary)" stroke="#2b3547"/>
<text x="200" y="245" text-anchor="middle" font-family="Arial" font-size="19" font-weight="700" fill="#4ade80">Easy 1</text>
<text x="430" y="245" text-anchor="middle" font-family="Arial" font-size="19" font-weight="700" fill="#facc15">Medium 0</text>
<text x="650" y="245" text-anchor="middle" font-family="Arial" font-size="19" font-weight="700" fill="#f87171">Hard 0</text>
<text x="875" y="245" text-anchor="middle" font-family="Arial" font-size="19" font-weight="700" fill="#38bdf8">Unknown 14</text>
<line x1="325" y1="218" x2="325" y2="254" stroke="#334155"/><line x1="540" y1="218" x2="540" y2="254" stroke="#334155"/><line x1="760" y1="218" x2="760" y2="254" stroke="#334155"/>
<rect x="235" y="292" width="300" height="72" rx="14" fill="#111827" stroke="#263043"/>
<text x="265" y="323" font-size="20">🔥</text><text x="300" y="320" class="muted" font-size="14">CURRENT STREAK</text><text x="300" y="348" class="title" font-size="23">0 days</text>
<rect x="565" y="292" width="300" height="72" rx="14" fill="#111827" stroke="#263043"/>
<text x="595" y="323" font-size="20">🏆</text><text x="630" y="320" class="muted" font-size="14">BEST STREAK</text><text x="630" y="348" class="title" font-size="23">1 day</text>
<text x="550" y="414" text-anchor="middle" class="muted" font-size="15" letter-spacing="3">PLATFORMS</text>
<line x1="80" y1="414" x2="350" y2="414" stroke="#263043"/><line x1="750" y1="414" x2="1020" y2="414" stroke="#263043"/>

<rect x="50" y="438" width="1000" height="220" rx="18" fill="#0d1117" stroke="#ff7a18" stroke-opacity="0.75" filter="url(#shadow)"/><rect x="51" y="439" width="7" height="218" rx="4" fill="#ff7a18"/>
<rect x="88" y="476" width="64" height="64" rx="16" fill="#ff7a18"/><text x="120" y="518" text-anchor="middle" font-family="Arial" font-size="32" font-weight="700" fill="#fff">L</text>
<text x="175" y="506" class="title" font-size="29">LeetCode</text><rect x="855" y="478" width="145" height="52" rx="13" fill="#ff4d4d" fill-opacity="0.28" stroke="#ff7a18" stroke-opacity="0.7"/><text x="927" y="501" text-anchor="middle" class="muted" font-size="12">SOLVED</text><text x="927" y="522" text-anchor="middle" class="title" font-size="20">1</text>
<line x1="175" y1="550" x2="1000" y2="550" stroke="#263043"/><text x="175" y="579" font-family="Arial" font-size="15" font-weight="700" fill="#4ade80">Easy 1</text><text x="335" y="579" font-family="Arial" font-size="15" font-weight="700" fill="#facc15">Medium 0</text><text x="515" y="579" font-family="Arial" font-size="15" font-weight="700" fill="#f87171">Hard 0</text><text x="670" y="579" font-family="Arial" font-size="15" font-weight="700" fill="#38bdf8">Unknown 0</text>
<text x="175" y="615" class="body" font-size="14">⌘  Languages: C++: 1</text><text x="650" y="615" class="body" font-size="14">◇  Topics: Array: 1</text>

<rect x="50" y="682" width="1000" height="220" rx="18" fill="#0d1117" stroke="#a855f7" stroke-opacity="0.75" filter="url(#shadow)"/><rect x="51" y="683" width="7" height="218" rx="4" fill="#a855f7"/>
<rect x="88" y="720" width="64" height="64" rx="16" fill="#a855f7"/><text x="120" y="762" text-anchor="middle" font-family="Arial" font-size="32" font-weight="700" fill="#fff">C</text>
<text x="175" y="750" class="title" font-size="29">CodeChef</text><rect x="855" y="722" width="145" height="52" rx="13" fill="#6d28d9" fill-opacity="0.28" stroke="#a855f7" stroke-opacity="0.7"/><text x="927" y="745" text-anchor="middle" class="muted" font-size="12">SOLVED</text><text x="927" y="766" text-anchor="middle" class="title" font-size="20">7</text>
<line x1="175" y1="794" x2="1000" y2="794" stroke="#263043"/><text x="175" y="823" font-family="Arial" font-size="15" font-weight="700" fill="#4ade80">Easy 0</text><text x="335" y="823" font-family="Arial" font-size="15" font-weight="700" fill="#facc15">Medium 0</text><text x="515" y="823" font-family="Arial" font-size="15" font-weight="700" fill="#f87171">Hard 0</text><text x="670" y="823" font-family="Arial" font-size="15" font-weight="700" fill="#38bdf8">Unknown 7</text>
<text x="175" y="859" class="body" font-size="14">⌘  Languages: C++: 4 · PYTH 3: 3</text><text x="650" y="859" class="body" font-size="14">◇  Topics: Other: 7</text>

<rect x="50" y="926" width="1000" height="220" rx="18" fill="#0d1117" stroke="#34d399" stroke-opacity="0.75" filter="url(#shadow)"/><rect x="51" y="927" width="7" height="218" rx="4" fill="#34d399"/>
<rect x="88" y="964" width="64" height="64" rx="16" fill="#34d399"/><text x="120" y="1006" text-anchor="middle" font-family="Arial" font-size="32" font-weight="700" fill="#fff">H</text>
<text x="175" y="994" class="title" font-size="29">HackerRank</text><rect x="855" y="966" width="145" height="52" rx="13" fill="#059669" fill-opacity="0.28" stroke="#34d399" stroke-opacity="0.7"/><text x="927" y="989" text-anchor="middle" class="muted" font-size="12">SOLVED</text><text x="927" y="1010" text-anchor="middle" class="title" font-size="20">7</text>
<line x1="175" y1="1038" x2="1000" y2="1038" stroke="#263043"/><text x="175" y="1067" font-family="Arial" font-size="15" font-weight="700" fill="#4ade80">Easy 0</text><text x="335" y="1067" font-family="Arial" font-size="15" font-weight="700" fill="#facc15">Medium 0</text><text x="515" y="1067" font-family="Arial" font-size="15" font-weight="700" fill="#f87171">Hard 0</text><text x="670" y="1067" font-family="Arial" font-size="15" font-weight="700" fill="#38bdf8">Unknown 7</text>
<text x="175" y="1103" class="body" font-size="14">⌘  Languages: Python: 5 · C++: 2</text><text x="650" y="1103" class="body" font-size="14">◇  Topics: Other: 7</text>
</svg>
